<svg xmlns="http://www.w3.org/2000/svg" viewBox="0 0 900 1160" font-family="'Inter', 'Helvetica Neue', Arial, sans-serif">
  <rect width="900" height="1160" fill="#ffffff"/>
  <rect x="0" y="0" width="900" height="104" fill="#b24a32"/>
  <text x="48" y="52" fill="#ffffff" font-size="22" font-weight="700" letter-spacing="0.5">ROSITA&#39;S KITCHEN INC.</text>
  <text x="48" y="76" fill="#ffd8c6" font-size="12">1417 South Lamar Blvd, Austin, TX 78704  |  Payroll Services  |  EIN: 74-2984017</text>
  <text x="852" y="52" text-anchor="end" fill="#ffffff" font-size="16" font-weight="600">Pay Statement</text>
  <text x="852" y="72" text-anchor="end" fill="#ffd8c6" font-size="11">Processed via Gusto</text>
  <text x="852" y="90" text-anchor="end" fill="#ffd8c6" font-size="11">Retain for your records</text>

  <g font-size="11">
    <rect x="48" y="136" width="804" height="108" fill="#fbf5f2" stroke="#d8dde8"/>
    <text x="64" y="162" fill="#5f6b83" font-weight="600" letter-spacing="0.5">EMPLOYEE</text>
    <text x="64" y="182" fill="#1a2541" font-size="13" font-weight="600">Maria G. Hernandez, Server</text>
    <text x="64" y="200" fill="#1a2541">Employee ID: FOH-204</text>
    <text x="64" y="216" fill="#1a2541">Section: Front of House</text>
    <text x="64" y="232" fill="#1a2541">Status: Full-time, Tipped</text>

    <text x="344" y="162" fill="#5f6b83" font-weight="600" letter-spacing="0.5">PAY PERIOD</text>
    <text x="344" y="182" fill="#1a2541" font-size="13" font-weight="600">Apr 05, 2026 &#8211; Apr 11, 2026</text>
    <text x="344" y="200" fill="#1a2541">Check Date: Apr 16, 2026</text>
    <text x="344" y="216" fill="#1a2541">Check Number: 013748</text>
    <text x="344" y="232" fill="#1a2541">Pay Frequency: Weekly</text>

    <text x="604" y="162" fill="#5f6b83" font-weight="600" letter-spacing="0.5">POS &amp; TIPS</text>
    <text x="604" y="182" fill="#1a2541" font-size="13" font-weight="600">Toast POS</text>
    <text x="604" y="200" fill="#1a2541">Tip pool: FOH 80 / BOH 20</text>
    <text x="604" y="216" fill="#1a2541">Tips declared: $342.18</text>
    <text x="604" y="232" fill="#1a2541">Tip credit applied: $5.12/hr</text>
  </g>

  <g font-size="11">
    <rect x="48" y="272" width="804" height="32" fill="#b24a32"/>
    <text x="64" y="292" fill="#ffffff" font-weight="600">EARNINGS</text>
    <text x="384" y="292" fill="#ffffff" font-weight="600" text-anchor="end">Rate</text>
    <text x="484" y="292" fill="#ffffff" font-weight="600" text-anchor="end">Hours</text>
    <text x="612" y="292" fill="#ffffff" font-weight="600" text-anchor="end">Current</text>
    <text x="836" y="292" fill="#ffffff" font-weight="600" text-anchor="end">Year-to-date</text>

    <g fill="#1a2541">
      <text x="64" y="324">Regular (tipped cash wage)</text>
      <text x="384" y="324" text-anchor="end">$15.0000</text>
      <text x="484" y="324" text-anchor="end">40.00</text>
      <text x="612" y="324" text-anchor="end">$600.00</text>
      <text x="836" y="324" text-anchor="end">$8,820.00</text>

      <text x="64" y="346" fill="#78839e">Overtime (1.5&#215;)</text>
      <text x="384" y="346" text-anchor="end" fill="#78839e">$22.5000</text>
      <text x="484" y="346" text-anchor="end" fill="#78839e">0.00</text>
      <text x="612" y="346" text-anchor="end" fill="#78839e">$0.00</text>
      <text x="836" y="346" text-anchor="end" fill="#78839e">$112.50</text>

      <text x="64" y="368">Declared tips (cash + card)</text>
      <text x="384" y="368" text-anchor="end">-</text>
      <text x="484" y="368" text-anchor="end">-</text>
      <text x="612" y="368" text-anchor="end">$342.18</text>
      <text x="836" y="368" text-anchor="end">$4,842.07</text>
    </g>

    <line x1="48" y1="388" x2="852" y2="388" stroke="#d8dde8"/>
    <text x="64" y="408" fill="#1a2541" font-weight="700">Total earnings</text>
    <text x="612" y="408" fill="#1a2541" font-weight="700" text-anchor="end">$942.18</text>
    <text x="836" y="408" fill="#1a2541" font-weight="700" text-anchor="end">$13,774.57</text>
  </g>

  <g font-size="11">
    <rect x="48" y="440" width="804" height="32" fill="#b24a32"/>
    <text x="64" y="460" fill="#ffffff" font-weight="600">DEDUCTIONS &amp; TAXES</text>
    <text x="612" y="460" fill="#ffffff" font-weight="600" text-anchor="end">Current</text>
    <text x="836" y="460" fill="#ffffff" font-weight="600" text-anchor="end">Year-to-date</text>

    <g fill="#1a2541">
      <text x="64" y="492">Federal Income Tax</text>
      <text x="612" y="492" text-anchor="end">$48.00</text>
      <text x="836" y="492" text-anchor="end">$652.80</text>

      <text x="64" y="514">Social Security (FICA, 6.2%)</text>
      <text x="612" y="514" text-anchor="end">$58.42</text>
      <text x="836" y="514" text-anchor="end">$854.03</text>

      <text x="64" y="536">Medicare (1.45%)</text>
      <text x="612" y="536" text-anchor="end">$13.66</text>
      <text x="836" y="536" text-anchor="end">$199.73</text>

      <text x="64" y="558">Meal credit (post-tax)</text>
      <text x="612" y="558" text-anchor="end">$8.00</text>
      <text x="836" y="558" text-anchor="end">$96.00</text>
    </g>

    <line x1="48" y1="582" x2="852" y2="582" stroke="#d8dde8"/>
    <text x="64" y="604" fill="#1a2541" font-weight="700">Total deductions</text>
    <text x="612" y="604" fill="#1a2541" font-weight="700" text-anchor="end">$128.08</text>
    <text x="836" y="604" fill="#1a2541" font-weight="700" text-anchor="end">$1,802.56</text>
  </g>

  <g>
    <rect x="48" y="644" width="390" height="150" fill="#fbf5f2" stroke="#d8dde8"/>
    <text x="64" y="672" fill="#5f6b83" font-size="11" font-weight="600" letter-spacing="0.5">PAY SUMMARY</text>
    <line x1="64" y1="686" x2="422" y2="686" stroke="#d8dde8"/>
    <text x="64" y="712" fill="#1a2541" font-size="12">Gross pay (wage + tips)</text>
    <text x="422" y="712" text-anchor="end" fill="#1a2541" font-size="12">$942.18</text>
    <text x="64" y="734" fill="#1a2541" font-size="12">Total deductions</text>
    <text x="422" y="734" text-anchor="end" fill="#1a2541" font-size="12">&#8722;$128.08</text>
    <line x1="64" y1="748" x2="422" y2="748" stroke="#d8dde8"/>
    <text x="64" y="776" fill="#b24a32" font-size="16" font-weight="700">Net pay</text>
    <text x="422" y="776" text-anchor="end" fill="#c45a1c" font-size="20" font-weight="700">$814.10</text>

    <rect x="462" y="644" width="390" height="150" fill="#fbf5f2" stroke="#d8dde8"/>
    <text x="478" y="672" fill="#5f6b83" font-size="11" font-weight="600" letter-spacing="0.5">YEAR-TO-DATE</text>
    <line x1="478" y1="686" x2="836" y2="686" stroke="#d8dde8"/>
    <text x="478" y="712" fill="#1a2541" font-size="12">YTD gross</text>
    <text x="836" y="712" text-anchor="end" fill="#1a2541" font-size="12">$13,774.57</text>
    <text x="478" y="734" fill="#1a2541" font-size="12">YTD taxes &amp; deductions</text>
    <text x="836" y="734" text-anchor="end" fill="#1a2541" font-size="12">&#8722;$1,802.56</text>
    <line x1="478" y1="748" x2="836" y2="748" stroke="#d8dde8"/>
    <text x="478" y="776" fill="#b24a32" font-size="16" font-weight="700">YTD net</text>
    <text x="836" y="776" text-anchor="end" fill="#1a2541" font-size="20" font-weight="700">$11,972.01</text>
  </g>

  <g fill="#5f6b83" font-size="10">
    <line x1="48" y1="1060" x2="852" y2="1060" stroke="#d8dde8"/>
    <text x="48" y="1082">Employer address: 1417 South Lamar Blvd, Austin, TX 78704     Phone: (512) 555-0199     Payroll: payroll@rositaskitchen.com</text>
    <text x="48" y="1100">Tip credit is applied under FLSA 203(m)(2). Employee must retain at least the Texas state minimum wage when tips + cash wage are combined.</text>
    <text x="48" y="1118">Processed via Gusto &#8226; Document ID RK-PYSLI-013748-2026W15 &#8226; Page 1 of 1</text>
  </g>
</svg>
