<svg xmlns="http://www.w3.org/2000/svg" viewBox="0 0 900 1160" font-family="'Inter', 'Helvetica Neue', Arial, sans-serif">
  <rect width="900" height="1160" fill="#ffffff"/>
  <!-- Header band -->
  <rect x="0" y="0" width="900" height="104" fill="#0b1e3b"/>
  <text x="48" y="52" fill="#ffffff" font-size="22" font-weight="700" letter-spacing="0.5">ST. DAVID&#39;S MEDICAL CENTER</text>
  <text x="48" y="76" fill="#a8c4e8" font-size="12">919 East 32nd Street, Austin, TX 78705  |  Payroll Services  |  EIN: 74-1234567</text>
  <text x="852" y="52" text-anchor="end" fill="#ffffff" font-size="16" font-weight="600">Earnings Statement</text>
  <text x="852" y="72" text-anchor="end" fill="#a8c4e8" font-size="11">Generated by ADP Workforce Now</text>
  <text x="852" y="90" text-anchor="end" fill="#a8c4e8" font-size="11">Confidential - retain for tax records</text>

  <!-- Employee / period block -->
  <g font-size="11">
    <rect x="48" y="136" width="804" height="108" fill="#f5f7fb" stroke="#d8dde8"/>
    <text x="64" y="162" fill="#5f6b83" font-weight="600" letter-spacing="0.5">EMPLOYEE</text>
    <text x="64" y="182" fill="#1a2541" font-size="13" font-weight="600">Sarah L. Okafor, RN</text>
    <text x="64" y="200" fill="#1a2541">Employee ID: 10284931</text>
    <text x="64" y="216" fill="#1a2541">Dept: ICU / Intensive Care</text>
    <text x="64" y="232" fill="#1a2541">SSN: XXX-XX-4821    Status: Full-time, Non-exempt</text>

    <text x="344" y="162" fill="#5f6b83" font-weight="600" letter-spacing="0.5">PAY PERIOD</text>
    <text x="344" y="182" fill="#1a2541" font-size="13" font-weight="600">Apr 06, 2026 &#8211; Apr 12, 2026</text>
    <text x="344" y="200" fill="#1a2541">Check Date: Apr 17, 2026</text>
    <text x="344" y="216" fill="#1a2541">Check Number: 00304189</text>
    <text x="344" y="232" fill="#1a2541">Pay Frequency: Weekly</text>

    <text x="604" y="162" fill="#5f6b83" font-weight="600" letter-spacing="0.5">DIRECT DEPOSIT</text>
    <text x="604" y="182" fill="#1a2541" font-size="13" font-weight="600">Chase Checking</text>
    <text x="604" y="200" fill="#1a2541">Account: XXXX-4612</text>
    <text x="604" y="216" fill="#1a2541">Routing: XXXX-7701</text>
    <text x="604" y="232" fill="#1a2541">Deposited: Apr 17, 2026</text>
  </g>

  <!-- Earnings table -->
  <g font-size="11">
    <rect x="48" y="272" width="804" height="32" fill="#1a2541"/>
    <text x="64" y="292" fill="#ffffff" font-weight="600">EARNINGS</text>
    <text x="384" y="292" fill="#ffffff" font-weight="600" text-anchor="end">Rate</text>
    <text x="484" y="292" fill="#ffffff" font-weight="600" text-anchor="end">Hours</text>
    <text x="612" y="292" fill="#ffffff" font-weight="600" text-anchor="end">Current</text>
    <text x="836" y="292" fill="#ffffff" font-weight="600" text-anchor="end">Year-to-date</text>

    <g fill="#1a2541">
      <text x="64" y="324">Regular</text>
      <text x="384" y="324" text-anchor="end">$42.0000</text>
      <text x="484" y="324" text-anchor="end">40.00</text>
      <text x="612" y="324" text-anchor="end">$1,680.00</text>
      <text x="836" y="324" text-anchor="end">$24,192.00</text>

      <text x="64" y="346">Overtime (1.5&#215;)</text>
      <text x="384" y="346" text-anchor="end">$63.0000</text>
      <text x="484" y="346" text-anchor="end">20.00</text>
      <text x="612" y="346" text-anchor="end">$1,260.00</text>
      <text x="836" y="346" text-anchor="end">$11,466.00</text>

      <text x="64" y="368" fill="#78839e">Shift differential, night</text>
      <text x="384" y="368" text-anchor="end" fill="#78839e">-</text>
      <text x="484" y="368" text-anchor="end" fill="#78839e">0.00</text>
      <text x="612" y="368" text-anchor="end" fill="#78839e">$0.00</text>
      <text x="836" y="368" text-anchor="end" fill="#78839e">$0.00</text>
    </g>

    <line x1="48" y1="388" x2="852" y2="388" stroke="#d8dde8"/>
    <text x="64" y="408" fill="#1a2541" font-weight="700">Total earnings</text>
    <text x="612" y="408" fill="#1a2541" font-weight="700" text-anchor="end">$2,940.00</text>
    <text x="836" y="408" fill="#1a2541" font-weight="700" text-anchor="end">$35,658.00</text>
  </g>

  <!-- Deductions table -->
  <g font-size="11">
    <rect x="48" y="440" width="804" height="32" fill="#1a2541"/>
    <text x="64" y="460" fill="#ffffff" font-weight="600">DEDUCTIONS &amp; TAXES</text>
    <text x="612" y="460" fill="#ffffff" font-weight="600" text-anchor="end">Current</text>
    <text x="836" y="460" fill="#ffffff" font-weight="600" text-anchor="end">Year-to-date</text>

    <g fill="#1a2541">
      <text x="64" y="492">Federal Income Tax</text>
      <text x="612" y="492" text-anchor="end">$441.00</text>
      <text x="836" y="492" text-anchor="end">$5,349.00</text>

      <text x="64" y="514">Social Security (FICA, 6.2%)</text>
      <text x="612" y="514" text-anchor="end">$182.28</text>
      <text x="836" y="514" text-anchor="end">$2,210.80</text>

      <text x="64" y="536">Medicare (1.45%)</text>
      <text x="612" y="536" text-anchor="end">$42.63</text>
      <text x="836" y="536" text-anchor="end">$517.04</text>

      <text x="64" y="558">Medical Insurance (Pre-tax)</text>
      <text x="612" y="558" text-anchor="end">$0.00</text>
      <text x="836" y="558" text-anchor="end">$0.00</text>
    </g>

    <line x1="48" y1="582" x2="852" y2="582" stroke="#d8dde8"/>
    <text x="64" y="604" fill="#1a2541" font-weight="700">Total deductions</text>
    <text x="612" y="604" fill="#1a2541" font-weight="700" text-anchor="end">$665.91</text>
    <text x="836" y="604" fill="#1a2541" font-weight="700" text-anchor="end">$8,076.84</text>
  </g>

  <!-- Summary box -->
  <g>
    <rect x="48" y="644" width="390" height="150" fill="#f5f7fb" stroke="#d8dde8"/>
    <text x="64" y="672" fill="#5f6b83" font-size="11" font-weight="600" letter-spacing="0.5">PAY SUMMARY</text>
    <line x1="64" y1="686" x2="422" y2="686" stroke="#d8dde8"/>
    <text x="64" y="712" fill="#1a2541" font-size="12">Gross pay</text>
    <text x="422" y="712" text-anchor="end" fill="#1a2541" font-size="12">$2,940.00</text>
    <text x="64" y="734" fill="#1a2541" font-size="12">Total deductions</text>
    <text x="422" y="734" text-anchor="end" fill="#1a2541" font-size="12">&#8722;$665.91</text>
    <line x1="64" y1="748" x2="422" y2="748" stroke="#d8dde8"/>
    <text x="64" y="776" fill="#0b1e3b" font-size="16" font-weight="700">Net pay</text>
    <text x="422" y="776" text-anchor="end" fill="#c45a1c" font-size="20" font-weight="700">$2,274.09</text>

    <rect x="462" y="644" width="390" height="150" fill="#f5f7fb" stroke="#d8dde8"/>
    <text x="478" y="672" fill="#5f6b83" font-size="11" font-weight="600" letter-spacing="0.5">YEAR-TO-DATE</text>
    <line x1="478" y1="686" x2="836" y2="686" stroke="#d8dde8"/>
    <text x="478" y="712" fill="#1a2541" font-size="12">YTD gross</text>
    <text x="836" y="712" text-anchor="end" fill="#1a2541" font-size="12">$35,658.00</text>
    <text x="478" y="734" fill="#1a2541" font-size="12">YTD taxes &amp; deductions</text>
    <text x="836" y="734" text-anchor="end" fill="#1a2541" font-size="12">&#8722;$8,076.84</text>
    <line x1="478" y1="748" x2="836" y2="748" stroke="#d8dde8"/>
    <text x="478" y="776" fill="#0b1e3b" font-size="16" font-weight="700">YTD net</text>
    <text x="836" y="776" text-anchor="end" fill="#1a2541" font-size="20" font-weight="700">$27,581.16</text>
  </g>

  <!-- Footer -->
  <g fill="#5f6b83" font-size="10">
    <line x1="48" y1="1060" x2="852" y2="1060" stroke="#d8dde8"/>
    <text x="48" y="1082">Employer address: 919 E 32nd St, Austin, TX 78705     Phone: (512) 476-7111     Payroll: payroll@stdavids.com</text>
    <text x="48" y="1100">This statement is informational. For questions about pay, hours, or deductions contact your HR Business Partner within 60 days.</text>
    <text x="48" y="1118">Processed via ADP Workforce Now &#8226; Document ID SD-PYSLI-00304189-2026W16 &#8226; Page 1 of 1</text>
  </g>
</svg>
