<svg xmlns="http://www.w3.org/2000/svg" viewBox="0 0 900 1160" font-family="'Inter', 'Helvetica Neue', Arial, sans-serif">
  <rect width="900" height="1160" fill="#ffffff"/>
  <rect x="0" y="0" width="900" height="104" fill="#0b5d52"/>
  <text x="48" y="52" fill="#ffffff" font-size="22" font-weight="700" letter-spacing="0.5">CYPRESS GROVE SENIOR CARE</text>
  <text x="48" y="76" fill="#bde4d6" font-size="12">1820 Banyan Drive, Tampa, FL 33607  |  Payroll Services  |  EIN: 59-1902277</text>
  <text x="852" y="52" text-anchor="end" fill="#ffffff" font-size="16" font-weight="600">Pay Statement</text>
  <text x="852" y="72" text-anchor="end" fill="#bde4d6" font-size="11">Processed via Paychex Flex</text>
  <text x="852" y="90" text-anchor="end" fill="#bde4d6" font-size="11">Confidential</text>

  <g font-size="11">
    <rect x="48" y="136" width="804" height="108" fill="#f5f8f6" stroke="#d8dde8"/>
    <text x="64" y="162" fill="#5f6b83" font-weight="600" letter-spacing="0.5">EMPLOYEE</text>
    <text x="64" y="182" fill="#1a2541" font-size="13" font-weight="600">Destiny J. Alvarez, CNA II</text>
    <text x="64" y="200" fill="#1a2541">Employee ID: LTC-1128</text>
    <text x="64" y="216" fill="#1a2541">Unit: Memory Care, Wing B</text>
    <text x="64" y="232" fill="#1a2541">Status: Full-time, Non-exempt</text>

    <text x="344" y="162" fill="#5f6b83" font-weight="600" letter-spacing="0.5">PAY PERIOD</text>
    <text x="344" y="182" fill="#1a2541" font-size="13" font-weight="600">Apr 05, 2026 &#8211; Apr 18, 2026</text>
    <text x="344" y="200" fill="#1a2541">Check Date: Apr 24, 2026</text>
    <text x="344" y="216" fill="#1a2541">Check Number: 077321</text>
    <text x="344" y="232" fill="#1a2541">Pay Frequency: Biweekly</text>

    <text x="604" y="162" fill="#5f6b83" font-weight="600" letter-spacing="0.5">TIME CLOCK</text>
    <text x="604" y="182" fill="#1a2541" font-size="13" font-weight="600">Kronos InTouch #103</text>
    <text x="604" y="200" fill="#1a2541">Rounding: nearest 15 min</text>
    <text x="604" y="216" fill="#1a2541">Clock policy: ATT-204</text>
    <text x="604" y="232" fill="#1a2541">Union: none</text>
  </g>

  <g font-size="11">
    <rect x="48" y="272" width="804" height="32" fill="#0b5d52"/>
    <text x="64" y="292" fill="#ffffff" font-weight="600">EARNINGS</text>
    <text x="384" y="292" fill="#ffffff" font-weight="600" text-anchor="end">Rate</text>
    <text x="484" y="292" fill="#ffffff" font-weight="600" text-anchor="end">Hours</text>
    <text x="612" y="292" fill="#ffffff" font-weight="600" text-anchor="end">Current</text>
    <text x="836" y="292" fill="#ffffff" font-weight="600" text-anchor="end">Year-to-date</text>

    <g fill="#1a2541">
      <text x="64" y="324">Regular</text>
      <text x="384" y="324" text-anchor="end">$15.5000</text>
      <text x="484" y="324" text-anchor="end">78.83</text>
      <text x="612" y="324" text-anchor="end">$1,221.87</text>
      <text x="836" y="324" text-anchor="end">$9,893.45</text>

      <text x="64" y="346" fill="#78839e">Overtime (1.5&#215;)</text>
      <text x="384" y="346" text-anchor="end" fill="#78839e">$23.2500</text>
      <text x="484" y="346" text-anchor="end" fill="#78839e">0.00</text>
      <text x="612" y="346" text-anchor="end" fill="#78839e">$0.00</text>
      <text x="836" y="346" text-anchor="end" fill="#78839e">$116.25</text>

      <text x="64" y="368" fill="#78839e">Holiday premium</text>
      <text x="384" y="368" text-anchor="end" fill="#78839e">-</text>
      <text x="484" y="368" text-anchor="end" fill="#78839e">0.00</text>
      <text x="612" y="368" text-anchor="end" fill="#78839e">$0.00</text>
      <text x="836" y="368" text-anchor="end" fill="#78839e">$0.00</text>
    </g>

    <line x1="48" y1="388" x2="852" y2="388" stroke="#d8dde8"/>
    <text x="64" y="408" fill="#1a2541" font-weight="700">Total earnings</text>
    <text x="612" y="408" fill="#1a2541" font-weight="700" text-anchor="end">$1,221.87</text>
    <text x="836" y="408" fill="#1a2541" font-weight="700" text-anchor="end">$10,009.70</text>
  </g>

  <g font-size="11">
    <rect x="48" y="440" width="804" height="32" fill="#0b5d52"/>
    <text x="64" y="460" fill="#ffffff" font-weight="600">DEDUCTIONS &amp; TAXES</text>
    <text x="612" y="460" fill="#ffffff" font-weight="600" text-anchor="end">Current</text>
    <text x="836" y="460" fill="#ffffff" font-weight="600" text-anchor="end">Year-to-date</text>

    <g fill="#1a2541">
      <text x="64" y="492">Federal Income Tax</text>
      <text x="612" y="492" text-anchor="end">$97.74</text>
      <text x="836" y="492" text-anchor="end">$800.78</text>

      <text x="64" y="514">Social Security (FICA, 6.2%)</text>
      <text x="612" y="514" text-anchor="end">$75.76</text>
      <text x="836" y="514" text-anchor="end">$620.60</text>

      <text x="64" y="536">Medicare (1.45%)</text>
      <text x="612" y="536" text-anchor="end">$17.72</text>
      <text x="836" y="536" text-anchor="end">$145.14</text>

      <text x="64" y="558">Uniform deposit (post-tax)</text>
      <text x="612" y="558" text-anchor="end">$12.00</text>
      <text x="836" y="558" text-anchor="end">$84.00</text>
    </g>

    <line x1="48" y1="582" x2="852" y2="582" stroke="#d8dde8"/>
    <text x="64" y="604" fill="#1a2541" font-weight="700">Total deductions</text>
    <text x="612" y="604" fill="#1a2541" font-weight="700" text-anchor="end">$203.22</text>
    <text x="836" y="604" fill="#1a2541" font-weight="700" text-anchor="end">$1,650.52</text>
  </g>

  <g>
    <rect x="48" y="644" width="390" height="150" fill="#f5f8f6" stroke="#d8dde8"/>
    <text x="64" y="672" fill="#5f6b83" font-size="11" font-weight="600" letter-spacing="0.5">PAY SUMMARY</text>
    <line x1="64" y1="686" x2="422" y2="686" stroke="#d8dde8"/>
    <text x="64" y="712" fill="#1a2541" font-size="12">Gross pay</text>
    <text x="422" y="712" text-anchor="end" fill="#1a2541" font-size="12">$1,221.87</text>
    <text x="64" y="734" fill="#1a2541" font-size="12">Total deductions</text>
    <text x="422" y="734" text-anchor="end" fill="#1a2541" font-size="12">&#8722;$203.22</text>
    <line x1="64" y1="748" x2="422" y2="748" stroke="#d8dde8"/>
    <text x="64" y="776" fill="#0b5d52" font-size="16" font-weight="700">Net pay</text>
    <text x="422" y="776" text-anchor="end" fill="#c45a1c" font-size="20" font-weight="700">$1,018.65</text>

    <rect x="462" y="644" width="390" height="150" fill="#f5f8f6" stroke="#d8dde8"/>
    <text x="478" y="672" fill="#5f6b83" font-size="11" font-weight="600" letter-spacing="0.5">YEAR-TO-DATE</text>
    <line x1="478" y1="686" x2="836" y2="686" stroke="#d8dde8"/>
    <text x="478" y="712" fill="#1a2541" font-size="12">YTD gross</text>
    <text x="836" y="712" text-anchor="end" fill="#1a2541" font-size="12">$10,009.70</text>
    <text x="478" y="734" fill="#1a2541" font-size="12">YTD taxes &amp; deductions</text>
    <text x="836" y="734" text-anchor="end" fill="#1a2541" font-size="12">&#8722;$1,650.52</text>
    <line x1="478" y1="748" x2="836" y2="748" stroke="#d8dde8"/>
    <text x="478" y="776" fill="#0b5d52" font-size="16" font-weight="700">YTD net</text>
    <text x="836" y="776" text-anchor="end" fill="#1a2541" font-size="20" font-weight="700">$8,359.18</text>
  </g>

  <g fill="#5f6b83" font-size="10">
    <line x1="48" y1="1060" x2="852" y2="1060" stroke="#d8dde8"/>
    <text x="48" y="1082">Employer address: 1820 Banyan Dr, Tampa, FL 33607     Phone: (813) 555-0174     Payroll: payroll@cypressgrove.com</text>
    <text x="48" y="1100">Time is recorded via Kronos and rounded to the nearest quarter-hour per Cypress Grove policy ATT-204. Report discrepancies within 5 business days.</text>
    <text x="48" y="1118">Processed via Paychex Flex &#8226; Document ID CG-PYSLI-077321-2026P08 &#8226; Page 1 of 1</text>
  </g>
</svg>
