<svg xmlns="http://www.w3.org/2000/svg" viewBox="0 0 680 520" font-family="'Courier New', Courier, monospace" font-size="12">
  <rect width="680" height="520" fill="#ffffff"/>
  <rect x="0" y="0" width="680" height="60" fill="#0b5d52"/>
  <text x="24" y="28" fill="#ffffff" font-size="18" font-weight="bold">CYPRESS GROVE SENIOR CARE</text>
  <text x="24" y="46" fill="#bde4d6" font-size="11">1820 Banyan Dr, Tampa, FL 33607 | (813) 555-0174 | EIN: 59-1902277</text>
  <text x="656" y="28" fill="#ffffff" font-size="11" text-anchor="end">PAY STATEMENT</text>
  <text x="656" y="46" fill="#bde4d6" font-size="10" text-anchor="end">Retain for tax purposes</text>

  <text x="24" y="84" fill="#333" font-size="11" font-weight="bold">EMPLOYEE</text>
  <text x="24" y="100" fill="#333" font-size="11">Destiny J. Alvarez</text>
  <text x="24" y="114" fill="#333" font-size="11">SSN: XXX-XX-4412</text>
  <text x="24" y="128" fill="#333" font-size="11">Emp #: LTC-1128</text>

  <text x="340" y="84" fill="#333" font-size="11" font-weight="bold">PAY INFORMATION</text>
  <text x="340" y="100" fill="#333" font-size="11">Period: 04/05/2026 to 04/18/2026</text>
  <text x="340" y="114" fill="#333" font-size="11">Pay Date: 04/24/2026</text>
  <text x="340" y="128" fill="#333" font-size="11">Check #: 077321</text>
  <text x="540" y="100" fill="#333" font-size="11">Unit: Memory Care</text>
  <text x="540" y="114" fill="#333" font-size="11">Class: CNA II</text>

  <line x1="24" y1="148" x2="656" y2="148" stroke="#cccccc"/>

  <text x="24" y="170" fill="#333" font-size="11" font-weight="bold">EARNINGS</text>
  <text x="24" y="186" fill="#555" font-size="10">Description</text>
  <text x="320" y="186" fill="#555" font-size="10" text-anchor="end">Rate</text>
  <text x="420" y="186" fill="#555" font-size="10" text-anchor="end">Hours</text>
  <text x="540" y="186" fill="#555" font-size="10" text-anchor="end">Current</text>
  <text x="656" y="186" fill="#555" font-size="10" text-anchor="end">YTD</text>

  <text x="24" y="204" fill="#333">Regular</text>
  <text x="320" y="204" fill="#333" text-anchor="end">$15.50</text>
  <text x="420" y="204" fill="#333" text-anchor="end">78.83</text>
  <text x="540" y="204" fill="#333" text-anchor="end">$1,221.87</text>
  <text x="656" y="204" fill="#333" text-anchor="end">$9,893.45</text>

  <line x1="24" y1="220" x2="656" y2="220" stroke="#eeeeee"/>

  <text x="24" y="240" fill="#333" font-weight="bold">Gross Pay</text>
  <text x="540" y="240" fill="#333" font-weight="bold" text-anchor="end">$1,221.87</text>

  <text x="24" y="274" fill="#333" font-size="11" font-weight="bold">DEDUCTIONS</text>
  <text x="24" y="292" fill="#333">Federal Income Tax</text>
  <text x="540" y="292" fill="#333" text-anchor="end">$97.74</text>
  <text x="24" y="308" fill="#333">Social Security (6.2%)</text>
  <text x="540" y="308" fill="#333" text-anchor="end">$75.75</text>
  <text x="24" y="324" fill="#333">Medicare (1.45%)</text>
  <text x="540" y="324" fill="#333" text-anchor="end">$17.72</text>
  <text x="24" y="340" fill="#333">Uniform Deposit</text>
  <text x="540" y="340" fill="#333" text-anchor="end">$12.00</text>

  <line x1="24" y1="356" x2="656" y2="356" stroke="#eeeeee"/>
  <text x="24" y="376" fill="#333" font-weight="bold">Net Pay</text>
  <text x="540" y="376" fill="#0b5d52" font-weight="bold" text-anchor="end">$1,018.66</text>

  <rect x="24" y="398" width="632" height="36" fill="#fef7dc" stroke="#e7d98f"/>
  <text x="36" y="418" fill="#6b4b00" font-size="11" font-weight="bold">Note:</text>
  <text x="84" y="418" fill="#6b4b00" font-size="11">Time recorded by Kronos terminal rounded to the nearest quarter-hour. Questions: payroll@cypressgrove.com.</text>

  <text x="24" y="464" fill="#666" font-size="10">Cypress Grove Senior Care | 1820 Banyan Dr, Tampa, FL 33607</text>
  <text x="24" y="480" fill="#666" font-size="10">This is an informational pay stub. Retain for your records.</text>
</svg>
