<svg xmlns="http://www.w3.org/2000/svg" viewBox="0 0 680 540" font-family="'Courier New', Courier, monospace" font-size="12">
  <rect width="680" height="540" fill="#ffffff"/>
  <rect x="0" y="0" width="680" height="60" fill="#2d6a4f"/>
  <text x="24" y="28" fill="#ffffff" font-size="18" font-weight="bold">SUNRISE HOME CARE LLC</text>
  <text x="24" y="46" fill="#b7e4c7" font-size="11">38-12 Queens Blvd, Ste 4C, Long Island City, NY 11101 | (718) 555-0261 | EIN: 13-5820947</text>
  <text x="560" y="28" fill="#ffffff" font-size="11" text-anchor="end">PAYROLL STATEMENT</text>
  <text x="560" y="46" fill="#b7e4c7" font-size="10" text-anchor="end">Employee copy</text>

  <text x="24" y="84" fill="#333" font-size="11" font-weight="bold">EMPLOYEE INFORMATION</text>
  <text x="24" y="100" fill="#333" font-size="11">Priya D. Sharma</text>
  <text x="24" y="114" fill="#333" font-size="11">SSN: XXX-XX-9054</text>
  <text x="24" y="128" fill="#333" font-size="11">Emp #: HHA-1192</text>
  <text x="24" y="142" fill="#333" font-size="11">Title: Home Health Aide</text>

  <text x="350" y="84" fill="#333" font-size="11" font-weight="bold">PAY DETAILS</text>
  <text x="350" y="100" fill="#333" font-size="11">Period: 04/07/2026 - 04/12/2026</text>
  <text x="350" y="114" fill="#333" font-size="11">Pay Date: 04/16/2026</text>
  <text x="350" y="128" fill="#333" font-size="11">Check #: 4410293</text>
  <text x="530" y="100" fill="#333" font-size="11">Freq: Weekly</text>
  <text x="530" y="114" fill="#333" font-size="11">Status: Active</text>

  <line x1="20" y1="156" x2="660" y2="156" stroke="#999" stroke-width="0.5"/>

  <rect x="20" y="162" width="640" height="22" fill="#e8f5ee"/>
  <text x="28" y="177" fill="#1b4332" font-size="11" font-weight="bold">EARNINGS</text>
  <text x="260" y="177" fill="#1b4332" font-size="11" font-weight="bold" text-anchor="end">RATE</text>
  <text x="360" y="177" fill="#1b4332" font-size="11" font-weight="bold" text-anchor="end">HOURS</text>
  <text x="460" y="177" fill="#1b4332" font-size="11" font-weight="bold" text-anchor="end">CURRENT</text>
  <text x="570" y="177" fill="#1b4332" font-size="11" font-weight="bold" text-anchor="end">YTD</text>

  <text x="28" y="202" fill="#333" font-size="11">Regular</text>
  <text x="260" y="202" fill="#333" font-size="11" text-anchor="end">16.50</text>
  <text x="360" y="202" fill="#333" font-size="11" text-anchor="end">40.00</text>
  <text x="460" y="202" fill="#333" font-size="11" text-anchor="end">660.00</text>
  <text x="570" y="202" fill="#333" font-size="11" text-anchor="end">9,900.00</text>

  <text x="28" y="220" fill="#999" font-size="11">Overtime (1.5x)</text>
  <text x="260" y="220" fill="#999" font-size="11" text-anchor="end">0.00</text>
  <text x="360" y="220" fill="#999" font-size="11" text-anchor="end">0.00</text>
  <text x="460" y="220" fill="#999" font-size="11" text-anchor="end">0.00</text>
  <text x="570" y="220" fill="#999" font-size="11" text-anchor="end">0.00</text>

  <line x1="380" y1="230" x2="580" y2="230" stroke="#999" stroke-width="0.5"/>
  <text x="28" y="246" fill="#333" font-size="11" font-weight="bold">GROSS PAY</text>
  <text x="460" y="246" fill="#333" font-size="11" font-weight="bold" text-anchor="end">$660.00</text>
  <text x="570" y="246" fill="#333" font-size="11" font-weight="bold" text-anchor="end">$9,900.00</text>

  <line x1="20" y1="258" x2="660" y2="258" stroke="#999" stroke-width="0.5"/>

  <rect x="20" y="264" width="640" height="22" fill="#e8f5ee"/>
  <text x="28" y="279" fill="#1b4332" font-size="11" font-weight="bold">DEDUCTIONS</text>
  <text x="460" y="279" fill="#1b4332" font-size="11" font-weight="bold" text-anchor="end">CURRENT</text>
  <text x="570" y="279" fill="#1b4332" font-size="11" font-weight="bold" text-anchor="end">YTD</text>

  <text x="28" y="302" fill="#333" font-size="11">Federal Income Tax</text>
  <text x="460" y="302" fill="#333" font-size="11" text-anchor="end">59.40</text>
  <text x="570" y="302" fill="#333" font-size="11" text-anchor="end">891.00</text>

  <text x="28" y="320" fill="#333" font-size="11">NY State Income Tax</text>
  <text x="460" y="320" fill="#333" font-size="11" text-anchor="end">33.00</text>
  <text x="570" y="320" fill="#333" font-size="11" text-anchor="end">495.00</text>

  <text x="28" y="338" fill="#333" font-size="11">NYC Resident Tax</text>
  <text x="460" y="338" fill="#333" font-size="11" text-anchor="end">19.80</text>
  <text x="570" y="338" fill="#333" font-size="11" text-anchor="end">297.00</text>

  <text x="28" y="356" fill="#333" font-size="11">Social Security (6.2%)</text>
  <text x="460" y="356" fill="#333" font-size="11" text-anchor="end">40.92</text>
  <text x="570" y="356" fill="#333" font-size="11" text-anchor="end">613.80</text>

  <text x="28" y="374" fill="#333" font-size="11">Medicare (1.45%)</text>
  <text x="460" y="374" fill="#333" font-size="11" text-anchor="end">9.57</text>
  <text x="570" y="374" fill="#333" font-size="11" text-anchor="end">143.55</text>

  <line x1="380" y1="384" x2="580" y2="384" stroke="#999" stroke-width="0.5"/>
  <text x="28" y="400" fill="#333" font-size="11" font-weight="bold">TOTAL DEDUCTIONS</text>
  <text x="460" y="400" fill="#333" font-size="11" font-weight="bold" text-anchor="end">$162.69</text>
  <text x="570" y="400" fill="#333" font-size="11" font-weight="bold" text-anchor="end">$2,440.35</text>

  <line x1="20" y1="414" x2="660" y2="414" stroke="#999" stroke-width="0.5"/>

  <rect x="20" y="420" width="640" height="36" fill="#f0faf4"/>
  <text x="28" y="443" fill="#1b4332" font-size="14" font-weight="bold">NET PAY</text>
  <text x="460" y="443" fill="#1b4332" font-size="14" font-weight="bold" text-anchor="end">$497.31</text>

  <line x1="20" y1="466" x2="660" y2="466" stroke="#999" stroke-width="0.5"/>

  <text x="24" y="486" fill="#333" font-size="10">Payment: Direct Deposit  |  Account: ****3197  |  Routing: ****0821</text>
  <text x="24" y="500" fill="#333" font-size="10">Client Assignment: Mrs. Eleanor Chen, 142-08 Roosevelt Ave, Flushing NY</text>
  <text x="24" y="518" fill="#999" font-size="9">Sunrise Home Care LLC  |  NY HHA License #HHC-29401  |  Payroll by Paychex</text>
  <text x="24" y="532" fill="#999" font-size="9">Discrepancies must be reported within 7 days to payroll@sunrisehomecare.com</text>

  <rect x="20" y="538" width="640" height="1" fill="#2d6a4f"/>
</svg>
