<svg xmlns="http://www.w3.org/2000/svg" viewBox="0 0 900 1160" font-family="'Inter', 'Helvetica Neue', Arial, sans-serif">
  <rect width="900" height="1160" fill="#ffffff"/>
  <rect x="0" y="0" width="900" height="104" fill="#0b3552"/>
  <text x="48" y="52" fill="#ffffff" font-size="22" font-weight="700" letter-spacing="0.5">HERMANN MEMORIAL HEALTH SYSTEM</text>
  <text x="48" y="76" fill="#bcd6e9" font-size="12">7737 Southwest Freeway, Houston, TX 77074  |  Payroll Services  |  EIN: 74-2188902</text>
  <text x="852" y="52" text-anchor="end" fill="#ffffff" font-size="16" font-weight="600">Pay Statement</text>
  <text x="852" y="72" text-anchor="end" fill="#bcd6e9" font-size="11">Processed via Workday HCM</text>
  <text x="852" y="90" text-anchor="end" fill="#bcd6e9" font-size="11">Represented by National Nurses United</text>

  <g font-size="11">
    <rect x="48" y="136" width="804" height="108" fill="#f4f7fb" stroke="#d8dde8"/>
    <text x="64" y="162" fill="#5f6b83" font-weight="600" letter-spacing="0.5">EMPLOYEE</text>
    <text x="64" y="182" fill="#1a2541" font-size="13" font-weight="600">Jasmine T. Okonkwo, RN (BSN)</text>
    <text x="64" y="200" fill="#1a2541">Employee ID: RN-48812</text>
    <text x="64" y="216" fill="#1a2541">Unit: Medical ICU, Tower 3</text>
    <text x="64" y="232" fill="#1a2541">Status: Full-time, Non-exempt</text>

    <text x="344" y="162" fill="#5f6b83" font-weight="600" letter-spacing="0.5">PAY PERIOD</text>
    <text x="344" y="182" fill="#1a2541" font-size="13" font-weight="600">Apr 05, 2026 &#8211; Apr 18, 2026</text>
    <text x="344" y="200" fill="#1a2541">Check Date: Apr 24, 2026</text>
    <text x="344" y="216" fill="#1a2541">Check Number: 514822</text>
    <text x="344" y="232" fill="#1a2541">Pay Frequency: Biweekly</text>

    <text x="604" y="162" fill="#5f6b83" font-weight="600" letter-spacing="0.5">UNION</text>
    <text x="604" y="182" fill="#1a2541" font-size="13" font-weight="600">National Nurses United</text>
    <text x="604" y="200" fill="#1a2541">Dues: $56.00 biweekly</text>
    <text x="604" y="216" fill="#1a2541">Contract: 2025-2028 CBA</text>
    <text x="604" y="232" fill="#1a2541">Steward: M. Ruiz-Castellanos, RN</text>
  </g>

  <g font-size="11">
    <rect x="48" y="272" width="804" height="32" fill="#0b3552"/>
    <text x="64" y="292" fill="#ffffff" font-weight="600">EARNINGS</text>
    <text x="384" y="292" fill="#ffffff" font-weight="600" text-anchor="end">Rate</text>
    <text x="484" y="292" fill="#ffffff" font-weight="600" text-anchor="end">Hours</text>
    <text x="612" y="292" fill="#ffffff" font-weight="600" text-anchor="end">Current</text>
    <text x="836" y="292" fill="#ffffff" font-weight="600" text-anchor="end">Year-to-date</text>

    <g fill="#1a2541">
      <text x="64" y="324">Regular</text>
      <text x="384" y="324" text-anchor="end">$46.5000</text>
      <text x="484" y="324" text-anchor="end">72.00</text>
      <text x="612" y="324" text-anchor="end">$3,348.00</text>
      <text x="836" y="324" text-anchor="end">$26,784.00</text>

      <text x="64" y="346">Overtime (1.5&#215;)</text>
      <text x="384" y="346" text-anchor="end">$69.7500</text>
      <text x="484" y="346" text-anchor="end">12.00</text>
      <text x="612" y="346" text-anchor="end">$837.00</text>
      <text x="836" y="346" text-anchor="end">$4,882.50</text>

      <text x="64" y="368" fill="#78839e">Night shift differential (CBA Art. 9)</text>
      <text x="384" y="368" text-anchor="end" fill="#78839e">$4.5000</text>
      <text x="484" y="368" text-anchor="end" fill="#78839e">0.00</text>
      <text x="612" y="368" text-anchor="end" fill="#78839e">$0.00</text>
      <text x="836" y="368" text-anchor="end" fill="#78839e">$756.00</text>

      <text x="64" y="390" fill="#78839e">Weekend premium (CBA Art. 9)</text>
      <text x="384" y="390" text-anchor="end" fill="#78839e">$3.0000</text>
      <text x="484" y="390" text-anchor="end" fill="#78839e">0.00</text>
      <text x="612" y="390" text-anchor="end" fill="#78839e">$0.00</text>
      <text x="836" y="390" text-anchor="end" fill="#78839e">$432.00</text>
    </g>

    <line x1="48" y1="410" x2="852" y2="410" stroke="#d8dde8"/>
    <text x="64" y="430" fill="#1a2541" font-weight="700">Total earnings</text>
    <text x="612" y="430" fill="#1a2541" font-weight="700" text-anchor="end">$4,185.00</text>
    <text x="836" y="430" fill="#1a2541" font-weight="700" text-anchor="end">$32,854.50</text>
  </g>

  <g font-size="11">
    <rect x="48" y="462" width="804" height="32" fill="#0b3552"/>
    <text x="64" y="482" fill="#ffffff" font-weight="600">DEDUCTIONS &amp; TAXES</text>
    <text x="612" y="482" fill="#ffffff" font-weight="600" text-anchor="end">Current</text>
    <text x="836" y="482" fill="#ffffff" font-weight="600" text-anchor="end">Year-to-date</text>

    <g fill="#1a2541">
      <text x="64" y="514">Federal Income Tax</text>
      <text x="612" y="514" text-anchor="end">$502.20</text>
      <text x="836" y="514" text-anchor="end">$3,942.54</text>

      <text x="64" y="536">Social Security (FICA, 6.2%)</text>
      <text x="612" y="536" text-anchor="end">$259.47</text>
      <text x="836" y="536" text-anchor="end">$2,036.98</text>

      <text x="64" y="558">Medicare (1.45%)</text>
      <text x="612" y="558" text-anchor="end">$60.68</text>
      <text x="836" y="558" text-anchor="end">$476.39</text>

      <text x="64" y="580">NNU Dues</text>
      <text x="612" y="580" text-anchor="end">$56.00</text>
      <text x="836" y="580" text-anchor="end">$448.00</text>

      <text x="64" y="602">Medical (NNU Health Plan, pre-tax)</text>
      <text x="612" y="602" text-anchor="end">$114.00</text>
      <text x="836" y="602" text-anchor="end">$912.00</text>

      <text x="64" y="624">403(b) Retirement (pre-tax)</text>
      <text x="612" y="624" text-anchor="end">$167.40</text>
      <text x="836" y="624" text-anchor="end">$1,339.20</text>
    </g>

    <line x1="48" y1="646" x2="852" y2="646" stroke="#d8dde8"/>
    <text x="64" y="668" fill="#1a2541" font-weight="700">Total deductions</text>
    <text x="612" y="668" fill="#1a2541" font-weight="700" text-anchor="end">$1,159.75</text>
    <text x="836" y="668" fill="#1a2541" font-weight="700" text-anchor="end">$9,155.11</text>
  </g>

  <g>
    <rect x="48" y="708" width="390" height="150" fill="#f4f7fb" stroke="#d8dde8"/>
    <text x="64" y="736" fill="#5f6b83" font-size="11" font-weight="600" letter-spacing="0.5">PAY SUMMARY</text>
    <line x1="64" y1="750" x2="422" y2="750" stroke="#d8dde8"/>
    <text x="64" y="776" fill="#1a2541" font-size="12">Gross pay</text>
    <text x="422" y="776" text-anchor="end" fill="#1a2541" font-size="12">$4,185.00</text>
    <text x="64" y="798" fill="#1a2541" font-size="12">Total deductions</text>
    <text x="422" y="798" text-anchor="end" fill="#1a2541" font-size="12">&#8722;$1,159.75</text>
    <line x1="64" y1="812" x2="422" y2="812" stroke="#d8dde8"/>
    <text x="64" y="840" fill="#0b3552" font-size="16" font-weight="700">Net pay</text>
    <text x="422" y="840" text-anchor="end" fill="#c45a1c" font-size="20" font-weight="700">$3,025.25</text>

    <rect x="462" y="708" width="390" height="150" fill="#f4f7fb" stroke="#d8dde8"/>
    <text x="478" y="736" fill="#5f6b83" font-size="11" font-weight="600" letter-spacing="0.5">YEAR-TO-DATE</text>
    <line x1="478" y1="750" x2="836" y2="750" stroke="#d8dde8"/>
    <text x="478" y="776" fill="#1a2541" font-size="12">YTD gross</text>
    <text x="836" y="776" text-anchor="end" fill="#1a2541" font-size="12">$32,854.50</text>
    <text x="478" y="798" fill="#1a2541" font-size="12">YTD taxes &amp; deductions</text>
    <text x="836" y="798" text-anchor="end" fill="#1a2541" font-size="12">&#8722;$9,155.11</text>
    <line x1="478" y1="812" x2="836" y2="812" stroke="#d8dde8"/>
    <text x="478" y="840" fill="#0b3552" font-size="16" font-weight="700">YTD net</text>
    <text x="836" y="840" text-anchor="end" fill="#1a2541" font-size="20" font-weight="700">$23,699.39</text>
  </g>

  <g fill="#5f6b83" font-size="10">
    <line x1="48" y1="1060" x2="852" y2="1060" stroke="#d8dde8"/>
    <text x="48" y="1082">Employer: Hermann Memorial Health System, 7737 SW Freeway, Houston, TX 77074  |  HR: (713) 704-2100  |  Steward: mruiz@nnu-texas.org</text>
    <text x="48" y="1100">Represented nurses may file grievances under Article 14 of the 2025-2028 CBA. Retaliation is prohibited under the NLRA and Art. 17 of the CBA.</text>
    <text x="48" y="1118">Processed via Workday HCM &#8226; Document ID HMHS-PYSLI-514822-2026P08 &#8226; Page 1 of 1</text>
  </g>
</svg>
