<svg xmlns="http://www.w3.org/2000/svg" viewBox="0 0 680 520" font-family="'Courier New', Courier, monospace" font-size="12">
  <rect width="680" height="520" fill="#ffffff"/>
  <rect x="0" y="0" width="680" height="60" fill="#1a3a5c"/>
  <text x="24" y="28" fill="#ffffff" font-size="17" font-weight="bold">ST. DAVID'S MEDICAL CENTER</text>
  <text x="24" y="46" fill="#b0c4de" font-size="11">919 E32nd St, Austin, TX 78705 | (512) 555-0192 | EIN: 74-9001234</text>
  <text x="560" y="28" fill="#ffffff" font-size="11" text-anchor="end">EARNINGS STATEMENT</text>
  <text x="560" y="46" fill="#b0c4de" font-size="10" text-anchor="end">Keep for your records</text>

  <text x="24" y="84" fill="#333" font-size="11" font-weight="bold">EMPLOYEE</text>
  <text x="24" y="100" fill="#333" font-size="11">Sarah K. Nguyen, RN</text>
  <text x="24" y="114" fill="#333" font-size="11">SSN: XXX-XX-2044</text>
  <text x="24" y="128" fill="#333" font-size="11">Emp #: ICU-8841</text>

  <text x="350" y="84" fill="#333" font-size="11" font-weight="bold">PAY PERIOD</text>
  <text x="350" y="100" fill="#333" font-size="11">Start: (see app)</text>
  <text x="350" y="114" fill="#333" font-size="11">End:   (see app)</text>
  <text x="350" y="128" fill="#333" font-size="11">Pay Date: 04/15/2026</text>
  <text x="530" y="100" fill="#333" font-size="11">Check #: 910442</text>
  <text x="530" y="114" fill="#333" font-size="11">Dept: ICU</text>

  <line x1="20" y1="142" x2="660" y2="142" stroke="#999" stroke-width="0.5"/>

  <rect x="20" y="150" width="640" height="22" fill="#e8edf2"/>
  <text x="28" y="165" fill="#1a3a5c" font-size="11" font-weight="bold">EARNINGS</text>
  <text x="260" y="165" fill="#1a3a5c" font-size="11" font-weight="bold" text-anchor="end">RATE</text>
  <text x="360" y="165" fill="#1a3a5c" font-size="11" font-weight="bold" text-anchor="end">HOURS</text>
  <text x="460" y="165" fill="#1a3a5c" font-size="11" font-weight="bold" text-anchor="end">CURRENT</text>
  <text x="570" y="165" fill="#1a3a5c" font-size="11" font-weight="bold" text-anchor="end">YTD</text>

  <text x="28" y="190" fill="#333" font-size="11">Regular</text>
  <text x="260" y="190" fill="#333" font-size="11" text-anchor="end">40.00</text>
  <text x="360" y="190" fill="#333" font-size="11" text-anchor="end">40.00</text>
  <text x="460" y="190" fill="#333" font-size="11" text-anchor="end">1,600.00</text>
  <text x="570" y="190" fill="#333" font-size="11" text-anchor="end">19,200.00</text>

  <text x="28" y="208" fill="#333" font-size="11">Overtime</text>
  <text x="260" y="208" fill="#333" font-size="11" text-anchor="end">60.00</text>
  <text x="360" y="208" fill="#333" font-size="11" text-anchor="end">20.00</text>
  <text x="460" y="208" fill="#333" font-size="11" text-anchor="end">1,200.00</text>
  <text x="570" y="208" fill="#333" font-size="11" text-anchor="end">4,800.00</text>

  <text x="28" y="226" fill="#999" font-size="11">Shift differential</text>
  <text x="260" y="226" fill="#999" font-size="11" text-anchor="end">0.00</text>
  <text x="360" y="226" fill="#999" font-size="11" text-anchor="end">0.00</text>
  <text x="460" y="226" fill="#999" font-size="11" text-anchor="end">0.00</text>
  <text x="570" y="226" fill="#999" font-size="11" text-anchor="end">0.00</text>

  <line x1="380" y1="234" x2="580" y2="234" stroke="#999" stroke-width="0.5"/>
  <text x="28" y="250" fill="#333" font-size="11" font-weight="bold">GROSS PAY</text>
  <text x="460" y="250" fill="#333" font-size="11" font-weight="bold" text-anchor="end">$2,800.00</text>
  <text x="570" y="250" fill="#333" font-size="11" font-weight="bold" text-anchor="end">$24,000.00</text>

  <line x1="20" y1="264" x2="660" y2="264" stroke="#999" stroke-width="0.5"/>

  <rect x="20" y="272" width="640" height="22" fill="#e8edf2"/>
  <text x="28" y="287" fill="#1a3a5c" font-size="11" font-weight="bold">DEDUCTIONS</text>
  <text x="460" y="287" fill="#1a3a5c" font-size="11" font-weight="bold" text-anchor="end">CURRENT</text>
  <text x="570" y="287" fill="#1a3a5c" font-size="11" font-weight="bold" text-anchor="end">YTD</text>

  <text x="28" y="312" fill="#333" font-size="11">Federal Income Tax</text>
  <text x="460" y="312" fill="#333" font-size="11" text-anchor="end">420.00</text>
  <text x="570" y="312" fill="#333" font-size="11" text-anchor="end">5,040.00</text>

  <text x="28" y="330" fill="#333" font-size="11">Social Security (6.2%)</text>
  <text x="460" y="330" fill="#333" font-size="11" text-anchor="end">173.60</text>
  <text x="570" y="330" fill="#333" font-size="11" text-anchor="end">2,083.20</text>

  <text x="28" y="348" fill="#333" font-size="11">Medicare (1.45%)</text>
  <text x="460" y="348" fill="#333" font-size="11" text-anchor="end">40.60</text>
  <text x="570" y="348" fill="#333" font-size="11" text-anchor="end">487.20</text>

  <line x1="380" y1="358" x2="580" y2="358" stroke="#999" stroke-width="0.5"/>
  <text x="28" y="374" fill="#333" font-size="11" font-weight="bold">TOTAL DEDUCTIONS</text>
  <text x="460" y="374" fill="#333" font-size="11" font-weight="bold" text-anchor="end">$634.20</text>
  <text x="570" y="374" fill="#333" font-size="11" font-weight="bold" text-anchor="end">$7,610.40</text>

  <line x1="20" y1="388" x2="660" y2="388" stroke="#999" stroke-width="0.5"/>

  <rect x="20" y="396" width="640" height="36" fill="#f0f5eb"/>
  <text x="28" y="419" fill="#1a3a5c" font-size="14" font-weight="bold">NET PAY</text>
  <text x="460" y="419" fill="#1a3a5c" font-size="14" font-weight="bold" text-anchor="end">$2,165.80</text>

  <line x1="20" y1="442" x2="660" y2="442" stroke="#999" stroke-width="0.5"/>

  <text x="24" y="462" fill="#333" font-size="10">Payment Method: Direct Deposit</text>
  <text x="24" y="476" fill="#333" font-size="10">Account: ****5510  |  Routing: ****2201</text>

  <text x="24" y="498" fill="#999" font-size="9">Demo stub for ShiftGuard  fictional data.</text>
  <text x="24" y="512" fill="#999" font-size="9">Verify earnings codes and differentials with your payroll department.</text>
</svg>
